<svg width="22" height="22" viewBox="0 0 22 22" fill="none" xmlns="http://www.w3.org/2000/svg">
<path d="M7.93023 21.2326H14.0698C19.186 21.2326 21.2326 19.186 21.2326 14.0698V7.93023C21.2326 2.81395 19.186 0.767442 14.0698 0.767442H7.93023C2.81395 0.767442 0.767442 2.81395 0.767442 7.93023V14.0698C0.767442 19.186 2.81395 21.2326 7.93023 21.2326Z" stroke="#828282" stroke-width="1.5" stroke-linecap="round" stroke-linejoin="round"/>
<path d="M15.3797 12.6473C14.2235 13.8036 12.5658 14.1618 11.1025 13.7013L8.45229 16.3413C8.26811 16.5357 7.8895 16.6585 7.61322 16.6176L6.38532 16.4538C5.97602 16.4027 5.60764 16.0138 5.54625 15.6148L5.38253 14.3869C5.3416 14.1208 5.47462 13.7422 5.65881 13.5478L8.29881 10.9078C7.84857 9.44454 8.19648 7.78687 9.35276 6.63059C11.0104 4.97291 13.7118 4.97291 15.3797 6.63059C17.0374 8.27803 17.0374 10.9794 15.3797 12.6473Z" stroke="#828282" stroke-width="1.5" stroke-miterlimit="10" stroke-linecap="round" stroke-linejoin="round"/>
<path d="M9.41405 15.3795L8.54429 14.4995" stroke="#828282" stroke-width="1.5" stroke-miterlimit="10" stroke-linecap="round" stroke-linejoin="round"/>
<path d="M12.4268 9.66972H12.436" stroke="#828282" stroke-width="2" stroke-linecap="round" stroke-linejoin="round"/>
</svg>
